<?xml version="1.0" encoding="utf-8"?>
<!-- Generator: Adobe Illustrator 15.0.2, SVG Export Plug-In . SVG Version: 6.00 Build 0)  -->
<!DOCTYPE svg PUBLIC "-//W3C//DTD SVG 1.1//EN" "http://www.w3.org/Graphics/SVG/1.1/DTD/svg11.dtd">
<svg version="1.1" id="Calque_1" xmlns="http://www.w3.org/2000/svg" xmlns:xlink="http://www.w3.org/1999/xlink" x="0px" y="0px"
	 width="36px" height="252px" viewBox="0 0 36 252" enable-background="new 0 0 36 252" xml:space="preserve">
<g>
	<g id="forward">
		<polygon fill="#F44336" points="24.501,15 31.001,15 18,28 5.001,15 11.498,15 11.498,2 24.501,2 		"/>
	</g>
	<g id="forward_1_">
		<polygon fill="#F44336" points="24.501,52 31.001,52 18,65 5.001,52 11.498,52 11.498,39 24.501,39 		"/>
	</g>
	<g id="forward_2_">
		<polygon fill="#F44336" points="24.501,89 31.001,89 18,102 5.001,89 11.498,89 11.498,76 24.501,76 		"/>
	</g>
	<g id="forward_3_">
		<polygon fill="#F44336" points="24.501,126 31.001,126 18,139 5.001,126 11.498,126 11.498,113 24.501,113 		"/>
	</g>
	<g id="forward_4_">
		<polygon fill="#F44336" points="24.501,163 31.001,163 18,176 5.001,163 11.498,163 11.498,150 24.501,150 		"/>
	</g>
	<g id="forward_5_">
		<polygon fill="#F44336" points="24.501,200 31.001,200 18,213 5.001,200 11.498,200 11.498,187 24.501,187 		"/>
	</g>
	<g id="forward_6_">
		<polygon fill="#F44336" points="24.501,237 31.001,237 18,250 5.001,237 11.498,237 11.498,224 24.501,224 		"/>
	</g>
	<rect fill="#607D8B" fill-opacity="0" width="36" height="252"/>
</g>
</svg>
