<?xml version="1.0" encoding="utf-8"?>
<!-- Generator: Adobe Illustrator 15.0.2, SVG Export Plug-In . SVG Version: 6.00 Build 0)  -->
<!DOCTYPE svg PUBLIC "-//W3C//DTD SVG 1.1//EN" "http://www.w3.org/Graphics/SVG/1.1/DTD/svg11.dtd">
<svg version="1.1" id="Calque_1" xmlns="http://www.w3.org/2000/svg" xmlns:xlink="http://www.w3.org/1999/xlink" x="0px" y="0px"
	 width="36px" height="252px" viewBox="0 0 36 252" enable-background="new 0 0 36 252" xml:space="preserve">
<g>
	<g id="forward">
		<polygon fill="#4CAF50" points="24.501,231 31.001,231 18,218 5.001,231 11.498,231 11.498,244 24.501,244 		"/>
	</g>
	<g id="forward_1_">
		<polygon fill="#4CAF50" points="24.501,196 31.001,196 18,183 5.001,196 11.498,196 11.498,209 24.501,209 		"/>
	</g>
	<g id="forward_2_">
		<polygon fill="#4CAF50" points="24.501,161 31.001,161 18,148 5.001,161 11.498,161 11.498,174 24.501,174 		"/>
	</g>
	<g id="forward_3_">
		<polygon fill="#4CAF50" points="24.501,126 31.001,126 18,113 5.001,126 11.498,126 11.498,139 24.501,139 		"/>
	</g>
	<g id="forward_4_">
		<polygon fill="#4CAF50" points="24.501,91 31.001,91 18,78 5.001,91 11.498,91 11.498,104 24.501,104 		"/>
	</g>
	<g id="forward_5_">
		<polygon fill="#4CAF50" points="24.501,56 31.001,56 18,43 5.001,56 11.498,56 11.498,69 24.501,69 		"/>
	</g>
	<g id="forward_6_">
		<polygon fill="#4CAF50" points="24.501,21 31.001,21 18,8 5.001,21 11.498,21 11.498,34 24.501,34 		"/>
	</g>
	<rect fill="#607D8B" fill-opacity="0" width="36" height="252"/>
</g>
</svg>
